<svg xmlns="http://www.w3.org/2000/svg" viewBox="0 0 13.04 21.64"><defs><style>.cls-1{fill:none;stroke:#565655;stroke-miterlimit:10;}.cls-2{fill:#009ee3;}</style></defs><g id="Layer_2" data-name="Layer 2"><g id="Layer_1-2" data-name="Layer 1"><path class="cls-1" d="M9,9.62V2.18h.3a.57.57,0,0,0,.57-.56V1.07A.58.58,0,0,0,9.27.5H4a.57.57,0,0,0-.57.57v.55A.56.56,0,0,0,4,2.18h.22V9.56A6,6,0,1,0,9,9.62Z"/><path class="cls-2" d="M8.24,11.34H8V3.91a1,1,0,0,0-1-1h-.8a1,1,0,0,0-1,1V11.3H4.91a4.21,4.21,0,1,0,3.33.05Z"/></g></g></svg>