<?xml version="1.0" encoding="utf-8"?>
<!-- Generator: Adobe Illustrator 24.1.0, SVG Export Plug-In . SVG Version: 6.00 Build 0)  -->
<svg version="1.1" id="Layer_1" xmlns="http://www.w3.org/2000/svg" xmlns:xlink="http://www.w3.org/1999/xlink" x="0px" y="0px"
	 viewBox="0 0 36.9 32.9" style="enable-background:new 0 0 36.9 32.9;" xml:space="preserve">
<style type="text/css">
	.st0{fill:none;stroke:#565655;stroke-miterlimit:10;}
	.st1{fill:#FFFFFF;stroke:#565655;stroke-miterlimit:10;}
	.st2{fill:#FFFFFF;}
</style>
<g id="Layer_2_1_">
	<g id="Layer_1-2">
		<path class="st0" d="M10.2,27.2H12l0,0v4.3c0,0.5-0.4,0.9-0.9,0.9h0l0,0c-0.5,0-0.9-0.4-0.9-0.9V27.2L10.2,27.2z"/>
		<path class="st0" d="M25.5,27.2h1.8l0,0v4.3c0,0.5-0.4,0.9-0.9,0.9l0,0l0,0c-0.5,0-0.9-0.4-0.9-0.9L25.5,27.2
			C25.5,27.2,25.5,27.2,25.5,27.2z"/>
		<path class="st1" d="M34.3,3.2h0.6c0.7,0,1.3-0.6,1.3-1.4l0,0c0-0.7-0.6-1.3-1.3-1.4H2c-0.7,0-1.3,0.6-1.3,1.4l0,0
			c0,0.7,0.6,1.3,1.3,1.4h0.6C-2,11.9,1.3,22.8,10,27.4s19.6,1.3,24.2-7.4C37.1,14.8,37.1,8.5,34.3,3.2z"/>
		<path class="st1" d="M33.5,3.8"/>
		<path class="st2" d="M5,5C1,12.4,3.9,21.6,11.3,25.6s16.7,1.1,20.6-6.3c2.4-4.5,2.4-9.8,0-14.3H5z"/>
	</g>
</g>
</svg>
