<svg xmlns="http://www.w3.org/2000/svg" viewBox="0 0 36.86 32.91"><defs><style>.cls-1{fill:none;}.cls-1,.cls-2{stroke:#565655;stroke-miterlimit:10;}.cls-2{fill:#fff;}</style></defs><g id="Layer_2" data-name="Layer 2"><g id="Layer_1-2" data-name="Layer 1"><path class="cls-1" d="M10.24,27.24H12a0,0,0,0,1,0,0v4.28a.88.88,0,0,1-.88.88h0a.88.88,0,0,1-.88-.88V27.24a0,0,0,0,1,0,0Z"/><path class="cls-1" d="M25.49,27.24h1.76a0,0,0,0,1,0,0v4.28a.88.88,0,0,1-.88.88h0a.88.88,0,0,1-.88-.88V27.24a0,0,0,0,1,0,0Z"/><path class="cls-2" d="M34.27,3.2h.57a1.35,1.35,0,0,0,1.35-1.35h0A1.35,1.35,0,0,0,34.84.5H2A1.35,1.35,0,0,0,.66,1.85h0A1.35,1.35,0,0,0,2,3.2H2.6a17.93,17.93,0,1,0,31.67,0Z"/></g></g></svg>